<svg width="18" height="24" viewBox="0 0 18 24" fill="none" xmlns="http://www.w3.org/2000/svg">
<g clip-path="url(#clip0_137_544)">
<path d="M15.657 23.6966H2.35813C1.20018 23.6966 0.261536 22.7192 0.261536 21.5135V11.0486C0.261536 9.84286 1.20018 8.86548 2.35813 8.86548H15.657C16.815 8.86548 17.7536 9.84286 17.7536 11.0486V21.5138C17.7536 22.7192 16.815 23.6966 15.657 23.6966Z" fill="black" stroke="black" stroke-miterlimit="10"/>
<path d="M9.00759 16.2558C6.3515 16.2558 4.17827 13.9928 4.17827 11.2271V6.50352C4.17827 3.73783 6.3515 1.47491 9.00759 1.47491C11.6637 1.47491 13.8369 3.73783 13.8369 6.50352V11.2274C13.8369 13.9931 11.6637 16.2558 9.00759 16.2558Z" stroke="black" stroke-width="3" stroke-miterlimit="10"/>
</g>
<defs>
<clipPath id="clip0_137_544">
<rect width="18" height="24" fill="white"/>
</clipPath>
</defs>
</svg>
