<svg width="22" height="18" viewBox="0 0 22 18" fill="none" xmlns="http://www.w3.org/2000/svg">
<g clip-path="url(#clip0_137_531)">
<path d="M14.1308 8.84907C15.9894 6.94661 15.9894 3.86211 14.1308 1.95965C12.2722 0.0571876 9.25875 0.0571878 7.40013 1.95965C5.54151 3.86211 5.54151 6.94661 7.40013 8.84907C9.25875 10.7515 12.2722 10.7515 14.1308 8.84907Z" fill="black"/>
<path d="M10.7657 0.679179C11.9986 0.679179 13.1581 1.17064 14.0299 2.06307C14.9018 2.9555 15.3819 4.14228 15.3819 5.40434C15.3819 6.66639 14.9018 7.85317 14.0299 8.7456C13.1581 9.63803 11.9986 10.1295 10.7657 10.1295C9.53268 10.1295 8.37325 9.63803 7.50139 8.7456C6.62953 7.85317 6.14939 6.66639 6.14939 5.40434C6.14939 4.14228 6.62953 2.9555 7.50139 2.06307C8.37325 1.17064 9.5324 0.679179 10.7657 0.679179ZM10.7657 0.386292C8.05821 0.386292 5.86325 2.63303 5.86325 5.40434C5.86325 8.17564 8.05821 10.4224 10.7657 10.4224C13.4731 10.4224 15.6681 8.17564 15.6681 5.40434C15.6681 2.63303 13.4731 0.386292 10.7657 0.386292Z" fill="black"/>
<path d="M17.4564 10.6863C16.4876 10.6567 16.1576 11.5541 14.2897 12.2482C13.3126 12.6114 12.3955 12.7403 11.6375 12.7687C11.6361 12.7719 11.6344 12.7749 11.6329 12.7781H10.3728C10.3725 12.7757 10.3719 12.7737 10.3719 12.7713C9.60251 12.7473 8.66169 12.6211 7.65849 12.2482C5.79087 11.5538 5.46066 10.6564 4.4918 10.6863C1.96578 10.7636 -0.302726 17.0036 0.48587 17.5595C0.558835 17.6107 0.641815 17.6019 0.747972 17.5478V17.5937H1.0301H1.6556H20.375H20.6755H21.2824V17.582C21.351 17.6025 21.4091 17.597 21.4621 17.5598C22.251 17.0036 19.9825 10.7636 17.4564 10.6863ZM20.6755 17.1717V17.1647C20.6783 17.167 20.6812 17.1693 20.6843 17.1717H20.6755Z" fill="black" stroke="black" stroke-miterlimit="10"/>
</g>
<defs>
<clipPath id="clip0_137_531">
<rect width="22" height="18" fill="white"/>
</clipPath>
</defs>
</svg>
